# xmcd
#
# Track frame offsets:
#	182
#	22390
#	40310
#	62537
#	83532
#	95570
#	104750
#	140762
#	154820
#	174185
#
# Disc length: 2473
#
# Revision: 2
# Processed by: cddbd v1.5.1PL0 Copyright (c) Steve Scherf et al.
# Submitted via: CDValet v3.31 - Copyright (c) 1997 Greg Leichner
# Normalized: r1:TDELIM( - )
#
DISCID=8409a70a
DTITLE=Various Artist - The Art Of Jazz Vocalists
DYEAR=1900
DGENRE=
TTITLE0=Louis Armstrong - Do You Know What It Means To Miss New Orleans
TTITLE1=Billie Holiday - Willow Weep For Me
TTITLE2=Bill Coleman - Satin Doll
TTITLE3=Zoot Sims - I Can't Get Started
TTITLE4=Lee Wiley - My Romance
TTITLE5=Billie Holiday - I Only Have Eyes For You
TTITLE6=Illinois Jaquet - I Wanna low Now
TTITLE7=Lee Wiley - My Funny Valentine
TTITLE8=Jackie and Roy - Spring Can Really Hang You
TTITLE9=Louis Armstrong - When It's Sleepy Time Down South
EXTD=ARJ11452 St-Clair Music, Quebec tel 514-3392732 fax 3392737\nSubmitted by Dave (gnomad@been-there.com)
EXTT0=
EXTT1=
EXTT2=
EXTT3=
EXTT4=
EXTT5=
EXTT6=
EXTT7=
EXTT8=
EXTT9=
PLAYORDER=
